<svg width="150" height="77" viewBox="0 0 150 77" fill="none" xmlns="http://www.w3.org/2000/svg">
<path d="M124.263 6.97657L124.274 6.97437L148 2.42039V29.3552C148 54.1784 127.802 74.3767 102.979 74.3767C91.8215 74.3767 84.8358 70.1897 76.066 64.6652L75 63.9937L73.934 64.6652C65.148 70.1999 58.3748 74.3767 47.3145 74.3767C22.4751 74.3767 2 54.1623 2 29.3552V2.42039L25.7258 6.97437L25.7258 6.9744L25.7373 6.97654C29.6357 7.70122 33.5369 8.06422 37.4416 8.06422C49.9272 8.06422 62.1129 11.1393 74.0503 17.5804L75 18.0929L75.9497 17.5804C87.8871 11.1393 100.073 8.06422 112.558 8.06422C116.463 8.06422 120.364 7.70122 124.263 6.97657ZM26.7856 29.7435L24.2766 29.4374L24.5557 31.9495C25.8135 43.2742 35.7782 52.0095 47.3145 52.0095C50.8319 52.0095 54.5295 50.284 57.786 48.401C59.4524 47.4374 61.0914 46.378 62.6201 45.3818C62.7555 45.2935 62.8899 45.2059 63.0233 45.1189C64.4144 44.2117 65.6965 43.3756 66.8759 42.6798L69.7709 40.9719L66.8887 39.2423C60.6054 35.4719 50.6243 30.4314 37.4416 30.4314C33.9327 30.4314 30.3228 30.1749 26.7856 29.7435ZM83.1113 39.2423L80.203 40.9876L83.1378 42.6878C85.4538 44.0295 87.4115 45.2591 89.1548 46.3609C89.2834 46.4422 89.411 46.5229 89.5377 46.603C91.1146 47.6003 92.5495 48.5076 93.8934 49.2676C96.844 50.936 99.5519 52.0095 102.979 52.0095C114.55 52.0095 124.19 43.2394 125.444 31.9495L125.723 29.4374L123.214 29.7435C119.677 30.1749 116.067 30.4314 112.558 30.4314C99.4653 30.4314 89.3968 35.4706 83.1113 39.2423Z" stroke="#B00B0B" stroke-width="4"/>
</svg>
