<svg width="150" height="150" viewBox="0 0 150 150" fill="none" xmlns="http://www.w3.org/2000/svg">
<g clip-path="url(#clip0)">
<path d="M149.539 47.069C123.574 13.7762 124.681 14.6102 123.295 14.4743L82.6503 8.99962C72.4046 7.61945 65.4452 9.41329 61.8915 9.73468C60.6988 9.89522 59.8624 10.9924 60.0226 12.1851C60.1832 13.3777 61.2818 14.2159 62.473 14.0539C66.0771 13.7234 72.5408 12.0362 82.0684 13.3188L109.979 17.0782C107.891 17.5039 77.0897 23.7804 74.9994 24.2064L40.0203 17.0782L52.111 15.4496C53.3037 15.2891 54.1401 14.1919 53.9799 12.9992C53.8193 11.8063 52.7198 10.9695 51.5295 11.1304L26.7063 14.4737C26.7028 14.474 26.6993 14.4746 26.6958 14.4752L26.663 14.4796C26.6296 14.4843 26.5971 14.4916 26.564 14.4977C26.5426 14.5018 26.5206 14.5048 26.4995 14.5095C26.4816 14.5133 26.4638 14.5171 26.4462 14.5212C26.4213 14.5273 26.3967 14.5347 26.3721 14.5414C26.334 14.5519 26.2959 14.5622 26.2584 14.5748C26.2429 14.5801 26.2282 14.5865 26.2127 14.5921C26.2059 14.5944 26.1992 14.5971 26.1928 14.5997C26.1711 14.6079 26.1485 14.6155 26.1271 14.624C26.0879 14.6401 26.0498 14.658 26.0117 14.6765C25.995 14.6844 25.9786 14.6917 25.9622 14.6999C25.9437 14.7093 25.9259 14.7184 25.908 14.728C25.8907 14.7374 25.8743 14.7479 25.857 14.7582C24.9107 15.3096 25.3728 15.3485 0.460839 47.0687C-0.057128 47.7332 -0.14619 48.6364 0.23291 49.389C1.11005 51.1292 -1.22285 47.6942 46.8675 111.528C47.5923 112.489 48.9587 112.68 49.9196 111.955C50.8803 111.23 51.0713 109.864 50.3468 108.903L8.107 52.9181L42.2383 63.6688C43.0569 65.8277 68.0573 131.768 68.521 132.991L56.4938 117.051C55.769 116.09 54.4029 115.899 53.4417 116.624C52.4807 117.348 52.29 118.715 53.0145 119.676C65.6083 136.364 66.9059 138.093 66.9955 138.195C68.5866 139.988 70.7871 141.122 72.8918 141.477C73.2032 141.53 76.8545 141.529 77.1598 141.469C79.8134 140.954 82.0549 139.455 83.1131 138.061L125.65 81.6817C126.375 80.7207 126.184 79.3543 125.223 78.6295C124.262 77.9053 122.896 78.0963 122.171 79.0567L81.4778 132.993C82.7777 129.564 106.806 66.1887 107.761 63.6691L141.893 52.9184L128.297 70.9382C127.572 71.8992 127.763 73.2656 128.724 73.9904C129.685 74.7152 131.051 74.5242 131.776 73.5632C150.028 49.3483 149.045 50.8161 149.765 49.3925C150.146 48.6393 150.058 47.7343 149.539 47.069ZM74.9997 29.7362L101.29 59.7287H48.7094L74.9997 29.7362ZM5.60447 47.5606L26.2777 21.0497L40.2936 58.4877L5.60447 47.5606ZM30.3743 19.5602C34.6891 20.4394 65.6283 26.7447 70.8873 27.8163L44.6644 57.7316L30.3743 19.5602ZM75.2405 137.151H74.7595L47.0579 64.0866H102.942L75.2405 137.151ZM105.335 57.7313L79.1121 27.8163C82.6004 27.1053 114.261 20.6536 119.625 19.5602L105.335 57.7313ZM109.706 58.4871L123.722 21.0491L144.395 47.5603L109.706 58.4871Z" fill="#B00B0B"/>
</g>
<defs>
<clipPath id="clip0">
<rect width="150" height="150" fill="white"/>
</clipPath>
</defs>
</svg>
