<svg width="103" height="150" viewBox="0 0 103 150" fill="none" xmlns="http://www.w3.org/2000/svg">
<g clip-path="url(#clip0)">
<path d="M2.50938 20H20.3226L30.12 147.69C30.2192 148.994 31.3097 150 32.622 150C33.9342 150 35.0247 148.994 35.1239 147.69L44.9226 20H87.8283C93.369 20.0061 97.8597 24.48 97.8659 30V32.5C97.8597 38.02 93.369 42.4939 87.8283 42.5H70.2627C61.9516 42.5085 55.2149 49.22 55.2064 57.5V62.5C55.2149 70.78 61.9516 77.4915 70.2627 77.5C75.8034 77.5061 80.294 81.98 80.3002 87.5V110C80.3002 111.381 81.4238 112.5 82.8096 112.5C84.1954 112.5 85.3189 111.381 85.3189 110V87.5C85.3104 79.22 78.5737 72.5085 70.2627 72.5C64.7219 72.4939 60.2313 68.02 60.2251 62.5V57.5C60.2313 51.98 64.7219 47.5061 70.2627 47.5H87.8283C96.1394 47.4915 102.876 40.78 102.885 32.5V30C102.876 21.72 96.1394 15.0085 87.8283 15H45.1236C45.0095 10.8569 43.456 6.8811 40.7272 3.75244C38.7128 1.37329 35.7464 0 32.622 0C29.4975 0 26.5311 1.37329 24.5167 3.75244C21.7892 6.8811 20.2344 10.8569 20.1203 15H2.50938C1.12359 15 0 16.1194 0 17.5C0 18.8806 1.12359 20 2.50938 20ZM28.2012 7.14844C29.2647 5.79224 30.8955 5 32.622 5C34.3497 5 35.9793 5.79224 37.0427 7.14844C38.9162 9.34815 39.9847 12.1167 40.0729 15H35.1313V12.5C35.1313 11.1194 34.0078 10 32.622 10C31.2361 10 30.1126 11.1194 30.1126 12.5V27.5C30.1126 28.8806 31.2361 30 32.622 30C34.0078 30 35.1313 28.8806 35.1313 27.5V20H39.8879L32.622 114.7L25.1429 17.2229C24.747 13.5901 25.851 9.95361 28.2012 7.14844Z" fill="#B00B0B"/>
</g>
<defs>
<clipPath id="clip0">
<rect width="102.885" height="150" fill="white"/>
</clipPath>
</defs>
</svg>
