<svg width="30" height="30" viewBox="0 0 30 30" fill="none" xmlns="http://www.w3.org/2000/svg">
<path d="M21.7208 0H8.27869C3.71382 0 0 3.714 0 8.27887V21.721C0 26.286 3.71382 29.9998 8.27869 29.9998H21.7208C26.286 29.9998 29.9998 26.2858 29.9998 21.721V8.27887C30 3.714 26.286 0 21.7208 0ZM27.3383 21.721C27.3383 24.8183 24.8183 27.3381 21.721 27.3381H8.27869C5.1815 27.3383 2.66173 24.8183 2.66173 21.721V8.27887C2.66173 5.18168 5.1815 2.66173 8.27869 2.66173H21.7208C24.8181 2.66173 27.3381 5.18168 27.3381 8.27887V21.721H27.3383Z" fill="#0A0A0A"/>
<path d="M15 7.27008C10.7375 7.27008 7.26978 10.7378 7.26978 15.0003C7.26978 19.2626 10.7375 22.7301 15 22.7301C19.2625 22.7301 22.7302 19.2626 22.7302 15.0003C22.7302 10.7378 19.2625 7.27008 15 7.27008ZM15 20.0682C12.2054 20.0682 9.93151 17.7947 9.93151 15.0001C9.93151 12.2053 12.2052 9.93163 15 9.93163C17.7948 9.93163 20.0685 12.2053 20.0685 15.0001C20.0685 17.7947 17.7946 20.0682 15 20.0682Z" fill="#0A0A0A"/>
<path d="M23.0542 5.01312C22.5414 5.01312 22.0376 5.22074 21.6754 5.58451C21.3115 5.9465 21.1023 6.45046 21.1023 6.96506C21.1023 7.47806 21.3117 7.98184 21.6754 8.34561C22.0374 8.7076 22.5414 8.91699 23.0542 8.91699C23.5688 8.91699 24.071 8.7076 24.4348 8.34561C24.7985 7.98184 25.0061 7.47788 25.0061 6.96506C25.0061 6.45046 24.7985 5.9465 24.4348 5.58451C24.0728 5.22074 23.5688 5.01312 23.0542 5.01312Z" fill="#0A0A0A"/>
</svg>
