<svg width="180" height="48" viewBox="0 0 180 48" fill="none" xmlns="http://www.w3.org/2000/svg">
<path d="M162.036 36C161.525 36 161.032 35.7913 160.647 35.4122C159.196 33.9828 157.796 32.6396 156.562 31.4548L156.556 31.4486C152.936 27.9746 149.81 24.9745 147.636 22.0192C145.205 18.7153 144.072 15.5828 144.072 12.1606C144.072 8.83576 145.085 5.76836 146.922 3.52307C148.782 1.25123 151.334 0 154.109 0C156.183 0 158.082 0.738449 159.754 2.19466C160.598 2.92972 161.362 3.82931 162.036 4.87864C162.71 3.82931 163.475 2.92972 164.319 2.19466C165.99 0.738449 167.89 0 169.964 0C172.738 0 175.29 1.25123 177.15 3.52307C178.988 5.76836 180 8.83576 180 12.1606C180 15.5828 178.868 18.7153 176.437 22.0189C174.262 24.9745 171.137 27.9743 167.518 31.448C166.281 32.6347 164.879 33.9801 163.425 35.4128C163.041 35.7913 162.547 36 162.036 36V36ZM154.109 2.37032C151.929 2.37032 149.926 3.35019 148.469 5.12963C146.991 6.93592 146.177 9.43282 146.177 12.1606C146.177 15.0388 147.126 17.6129 149.256 20.5068C151.314 23.3041 154.376 26.2424 157.92 29.6448L157.927 29.6509C159.166 30.8404 160.571 32.1889 162.033 33.6288C163.504 32.1861 164.911 30.8355 166.153 29.6442C169.697 26.2418 172.758 23.3041 174.817 20.5068C176.946 17.6129 177.896 15.0388 177.896 12.1606C177.896 9.43282 177.081 6.93592 175.603 5.12963C174.146 3.35019 172.143 2.37032 169.964 2.37032C168.367 2.37032 166.9 2.94206 165.606 4.0695C164.452 5.07468 163.648 6.34535 163.177 7.23445C162.935 7.69166 162.508 7.96457 162.036 7.96457C161.564 7.96457 161.137 7.69166 160.895 7.23445C160.424 6.34535 159.62 5.07468 158.466 4.0695C157.172 2.94206 155.706 2.37032 154.109 2.37032V2.37032Z" fill="#B00B0B"/>
<path fill-rule="evenodd" clip-rule="evenodd" d="M0.720052 8.97159C-0.00973067 9.33659 -0.040138 9.48867 0.0206772 11.6178C0.0510848 12.8345 0.23353 13.9903 0.415976 14.1728C0.568014 14.3249 0.720052 14.9028 0.720052 15.4199C0.720052 17.5491 3.00062 18.6441 3.7 16.8495C4.24733 15.5112 4.70345 10.4012 4.33856 9.73201C3.76081 8.66742 2.02758 8.30242 0.720052 8.97159Z" fill="white"/>
<path fill-rule="evenodd" clip-rule="evenodd" d="M6.43656 9.06167C5.40271 9.60917 5.15945 10.4912 5.55474 12.225C5.73719 12.9854 5.88923 14.2021 5.88923 14.9625C5.88923 16.8179 6.52779 17.7 7.86572 17.7C9.47732 17.7 9.7814 17.1525 9.84221 14.1412C9.87262 12.6812 9.90303 11.0692 9.90303 10.5825C9.93344 9.54833 8.92999 8.575 7.89613 8.575C7.56164 8.60541 6.89268 8.78792 6.43656 9.06167Z" fill="white"/>
<path fill-rule="evenodd" clip-rule="evenodd" d="M96.7777 8.8801C94.8316 9.21469 93.4633 9.91427 92.1558 11.2526C91.1827 12.2564 91.0611 12.5605 90.9699 14.203L90.8787 16.028L89.5103 16.1193C85.2228 16.3626 85.8614 19.5259 90.1793 19.5259H91.0307L91.0003 23.9364C90.9395 29.0159 90.9699 28.9551 88.294 28.9551C87.0473 28.9551 86.5912 29.1072 86.0134 29.7155C84.8884 30.8409 85.01 31.8143 86.3783 32.453C87.3818 32.9397 87.7771 32.9701 89.6015 32.6659C92.1254 32.2097 94.4972 32.2097 95.8959 32.6051C97.0514 32.9397 99.8185 32.3313 100.366 31.6318C101.035 30.8105 101.065 29.9588 100.518 29.2288C100.031 28.6509 99.5752 28.4989 97.5379 28.3772L95.1357 28.1947L95.1661 26.6739C95.1965 25.8222 95.2269 23.8147 95.2573 22.1722L95.2878 19.2218H96.4432C97.7812 19.2218 98.9367 18.5222 98.9367 17.7009C98.9367 16.9101 97.2338 15.5718 96.1696 15.5718C95.4094 15.5718 95.2878 15.4501 95.2878 14.7201C95.2878 13.5339 96.2 12.8039 97.8116 12.6214L99.1495 12.4693L99.332 13.7772C99.6969 16.5147 102.494 17.6705 104.714 16.028C106.143 14.9939 106.234 14.7201 105.778 13.0472C105.018 10.0664 100.913 8.15011 96.7777 8.8801Z" fill="white"/>
<path fill-rule="evenodd" clip-rule="evenodd" d="M165.924 8.87954C164.678 9.39662 164.556 10.0962 165.225 13.4725C165.559 15.2062 166.076 16.8487 166.35 17.1529C166.989 17.8525 168.174 17.8525 168.539 17.1529C168.935 16.4229 169.573 10.7958 169.36 9.9137C169.056 8.78829 167.414 8.30162 165.924 8.87954Z" fill="white"/>
<path fill-rule="evenodd" clip-rule="evenodd" d="M171.763 8.87938C170.364 9.42688 170.273 9.85271 170.729 13.4723C170.942 15.4494 171.307 17.031 171.55 17.2744C172.097 17.8219 173.861 17.8219 174.317 17.2744C174.53 17.031 174.682 16.0273 174.682 15.054C174.682 14.0806 174.743 12.5294 174.834 11.556C174.986 10.096 174.925 9.76146 174.378 9.21396C173.709 8.5448 172.827 8.42313 171.763 8.87938Z" fill="white"/>
<path fill-rule="evenodd" clip-rule="evenodd" d="M44.8109 9.54834C43.9899 10.0046 43.625 11.3733 44.1724 12.0425C44.3548 12.2858 45.0846 12.5292 45.7536 12.6204C46.4529 12.7117 47.1523 12.9246 47.3348 13.1071C47.578 13.3504 47.7605 19.525 47.8517 30.6879C47.8517 31.6613 48.7335 32.0263 50.0714 31.6613C50.9533 31.4179 51.3486 31.4788 51.9263 31.8438C52.4432 32.2088 53.2642 32.3 54.9062 32.2696C56.153 32.2088 57.3084 32.2696 57.4909 32.3913C57.7037 32.5129 58.3727 32.4217 58.9809 32.1479C59.589 31.9046 60.3188 31.6917 60.6229 31.6917C61.9304 31.6917 64.6671 27.19 64.9407 24.6046C65.0928 23.4488 64.9712 22.8404 64.4238 21.8671C64.0589 21.1675 63.6028 20.0725 63.39 19.4338C62.5081 16.7875 57.1868 14.9321 53.325 15.9967C52.4128 16.24 51.5918 16.3617 51.5006 16.2704C51.4094 16.2096 51.3486 14.78 51.3181 13.1071C51.3181 11.4342 51.1661 9.94376 51.0141 9.79167C50.4971 9.27459 45.6623 9.09209 44.8109 9.54834ZM57.2172 19.2817C58.768 19.6467 60.0755 20.6808 60.7749 22.0192C61.1398 22.7492 61.1094 22.8708 60.7445 22.8708C60.2276 22.8708 60.2276 22.9317 60.6837 23.905C61.2006 25.1217 60.5621 26.9467 59.437 27.4333C58.9505 27.6159 58.3119 28.0417 58.0078 28.3763C57.4605 28.9846 55.1495 29.2279 55.1495 28.65C55.1495 28.4675 54.7238 28.3459 54.2373 28.3459C51.8655 28.3459 51.1053 26.4296 51.9567 22.7188C52.5345 20.3158 52.7777 19.89 54.0852 19.3425C55.2407 18.8254 55.4536 18.8254 57.2172 19.2817Z" fill="white"/>
<path fill-rule="evenodd" clip-rule="evenodd" d="M74.2455 15.2667C69.3803 16.1183 67.0998 18.3692 66.5828 22.8708C66.4308 24.1483 66.522 24.9696 67.0085 26.3383C67.8295 28.7717 68.8026 29.9275 71.0527 31.2963C72.9076 32.4217 72.9988 32.4217 75.9788 32.4217C78.7763 32.4217 79.1716 32.3608 81.0264 31.4483C83.6111 30.2013 84.4017 29.3496 84.28 28.0113C84.1888 27.0075 84.1584 26.9771 82.6684 26.8858C81.3001 26.7946 80.9656 26.9163 79.5365 28.0113C77.9857 29.1671 77.8336 29.1975 76.1916 29.0454C75.249 28.9542 73.9719 28.6196 73.3333 28.3154C72.1778 27.7375 70.9615 26.3992 70.9615 25.73C70.9615 25.1521 73.8198 24.9088 78.533 25.0608C82.3339 25.2129 82.6988 25.1825 83.4894 24.6046C84.2496 24.0267 84.3408 23.8138 84.3104 22.2017C84.28 21.1979 84.0976 20.3158 83.9151 20.1942C83.7023 20.0725 83.3678 19.5554 83.1549 19.0079C82.7292 17.9738 81.3913 16.9396 79.0803 15.9358C77.2255 15.1146 76.0396 14.9625 74.2455 15.2667ZM78.5026 19.5858C79.354 19.9204 80.0838 20.3767 80.0838 20.5896C80.0838 20.8329 80.175 21.2283 80.2662 21.5021C80.4487 21.9583 80.0534 21.9888 75.7355 21.8975C73.1509 21.8367 70.9007 21.715 70.7791 21.5933C70.5358 21.3196 71.5088 20.1333 71.965 20.1333C72.1474 20.1333 72.5123 19.9204 72.8164 19.6467C73.4853 19.0383 75.1273 18.6125 76.1308 18.795C76.5565 18.8863 77.6208 19.2208 78.5026 19.5858Z" fill="white"/>
<path fill-rule="evenodd" clip-rule="evenodd" d="M152.697 15.2667C147.832 16.1183 145.551 18.3692 145.034 22.8708C144.882 24.1483 144.974 24.9696 145.46 26.3383C146.281 28.7717 147.254 29.9275 149.504 31.2963C151.359 32.4217 151.45 32.4217 154.43 32.4217C157.228 32.4217 157.623 32.3608 159.478 31.4483C162.063 30.2013 162.853 29.3496 162.732 28.0113C162.64 27.0075 162.61 26.9771 161.12 26.8858C159.752 26.7946 159.417 26.9163 157.988 28.0113C156.437 29.1671 156.285 29.1975 154.643 29.0454C153.701 28.9542 152.424 28.6196 151.785 28.3154C150.629 27.7375 149.413 26.3992 149.413 25.73C149.413 25.1521 152.272 24.9088 156.985 25.0608C160.786 25.2129 161.151 25.1825 161.941 24.6046C162.701 24.0267 162.793 23.8138 162.762 22.2017C162.732 21.1979 162.549 20.3158 162.367 20.1942C162.154 20.0725 161.819 19.5554 161.607 19.0079C161.181 17.9738 159.843 16.9396 157.532 15.9358C155.677 15.1146 154.491 14.9625 152.697 15.2667ZM156.954 19.5858C157.806 19.9204 158.535 20.3767 158.535 20.5896C158.535 20.8329 158.627 21.2283 158.718 21.5021C158.9 21.9583 158.505 21.9888 154.187 21.8975C151.603 21.8367 149.352 21.715 149.231 21.5933C148.987 21.3196 149.961 20.1333 150.417 20.1333C150.599 20.1333 150.964 19.9204 151.268 19.6467C151.937 19.0383 153.579 18.6125 154.582 18.795C155.008 18.8863 156.072 19.2208 156.954 19.5858Z" fill="white"/>
<path fill-rule="evenodd" clip-rule="evenodd" d="M138.01 15.5708C137.676 15.7229 137.098 15.8446 136.703 15.8446C136.308 15.875 135.243 16.2096 134.331 16.6354L132.628 17.4263L132.02 16.6354C131.442 15.9054 131.29 15.875 128.158 15.875C125.361 15.875 124.814 15.9662 124.388 16.4225C123.08 17.8521 124.266 19.2208 126.821 19.2208C128.706 19.2208 128.675 19.1904 128.767 23.0229C128.858 28.1937 128.827 28.4979 127.976 28.8933C127.55 29.1062 126.699 29.2583 126.121 29.2583C125.087 29.2583 123.567 30.3229 123.567 31.0529C123.567 31.9046 124.996 32.2392 128.493 32.2696C130.439 32.2696 132.385 32.3608 132.811 32.4825C133.328 32.6042 133.875 32.4825 134.362 32.1783C134.818 31.8742 135.395 31.7525 135.852 31.8742C136.703 32.0871 137.554 31.3267 137.554 30.3229C137.554 29.38 136.338 28.65 134.696 28.65C133.936 28.65 133.236 28.4979 133.115 28.3154C132.993 28.1329 132.872 27.0379 132.811 25.8821C132.72 24.1179 132.841 23.6008 133.48 22.4146C133.966 21.5629 134.544 20.985 135 20.8633C135.395 20.7721 135.73 20.5592 135.73 20.4071C135.73 20.0421 137.342 19.2817 137.798 19.4337C137.98 19.525 138.163 19.89 138.163 20.255C138.163 20.6504 138.436 21.3196 138.771 21.7454C139.318 22.4146 139.683 22.5362 141.294 22.6275C143.18 22.7187 143.18 22.7187 143.697 21.6542C144.001 21.0762 144.244 20.3767 144.244 20.1029C144.244 19.0079 142.997 16.8179 142.024 16.2096C140.838 15.4796 138.862 15.1754 138.01 15.5708Z" fill="white"/>
<path fill-rule="evenodd" clip-rule="evenodd" d="M109.579 15.9662C106.782 16.7267 104.683 18.4908 103.71 20.985C103.072 22.5667 103.072 22.8708 103.65 22.8708C104.167 22.8708 104.288 23.3575 103.802 23.54C103.376 23.6617 103.072 25.6996 103.315 26.6729C103.589 27.7983 105.504 29.7754 107.116 30.6575C107.876 31.0833 108.849 31.6004 109.275 31.8438C111.647 33.1517 116.056 33.2125 117.82 31.9958C120.283 30.2925 121.742 28.7413 121.742 27.8592C121.742 27.4942 121.894 27.0683 122.046 26.9771C122.229 26.8554 122.35 26.5513 122.32 26.2775C122.259 25.9733 122.35 25.4563 122.472 25.0913C122.594 24.6958 122.594 24.2396 122.472 24.0267C122.32 23.8138 122.259 23.2054 122.32 22.6883C122.442 21.2892 121.073 18.8254 119.766 18.0042C119.188 17.6392 118.701 17.2437 118.701 17.1221C118.701 17.0004 118.184 16.6354 117.576 16.3312C116.147 15.6621 111.586 15.4492 109.579 15.9662ZM116.238 20.2246C117.151 20.6808 117.82 22.4754 117.85 24.6046C117.88 26.1254 117.82 26.2471 116.39 27.555C115.052 28.8021 114.748 28.9238 113.38 28.9542C112.377 28.9542 111.434 28.7413 110.643 28.285C106.903 26.2775 106.386 22.1712 109.64 20.1029C110.522 19.5554 110.947 19.4946 113.046 19.6771C114.383 19.7683 115.813 20.0117 116.238 20.2246Z" fill="white"/>
<path fill-rule="evenodd" clip-rule="evenodd" d="M10.8154 23.8137C9.78159 24.4829 8.93018 26.0646 8.93018 27.2813C8.93018 28.5892 10.0857 30.7488 11.1195 31.4179C11.9101 31.9046 12.4575 31.9958 13.6738 31.8742C14.7684 31.7829 15.4374 31.8742 15.8935 32.1783C16.4713 32.5738 16.5321 32.5738 16.5321 32.1783C16.5321 31.9046 16.9578 31.4179 17.4443 31.0225C17.9612 30.6575 18.3261 30.11 18.2957 29.8363C18.2349 29.5625 18.3869 29.1063 18.6302 28.8325C19.1775 28.1938 19.1167 26.6729 18.539 25.2433C17.9916 23.9354 17.1402 23.5704 14.0082 23.3271C12.0926 23.175 11.6973 23.2358 10.8154 23.8137Z" fill="white"/>
<path fill-rule="evenodd" clip-rule="evenodd" d="M23.5255 23.7225C22.4308 24.3308 21.4274 25.8821 21.397 27.0379C21.397 27.6767 21.6706 28.5587 22.4004 30.11C22.9478 31.2963 24.529 32.0263 26.323 31.9958C27.2048 31.9654 28.2387 32.0263 28.634 32.1479C29.0901 32.3 29.3029 32.2392 29.3029 31.9654C29.3029 31.7221 29.6374 31.2658 30.0631 30.9617C30.4888 30.6271 30.8233 30.1708 30.7625 29.8971C30.7321 29.6233 30.945 29.0454 31.2186 28.6196C31.6139 28.0112 31.7051 27.4942 31.5531 26.5513C31.4315 25.8821 31.249 25.3042 31.097 25.3042C30.945 25.3042 30.8233 25.0912 30.8233 24.8175C30.8233 24.1483 29.0597 23.5096 26.6575 23.2967C24.9547 23.175 24.4073 23.2358 23.5255 23.7225Z" fill="white"/>
<path fill-rule="evenodd" clip-rule="evenodd" d="M35.932 23.8442C34.29 24.8479 33.621 27.3117 34.5332 29.0454C34.7157 29.4104 34.9589 29.9275 35.0806 30.1708C35.2022 30.4142 35.7495 30.9617 36.3273 31.3267C37.1787 31.9046 37.6348 32.0263 38.8815 31.9046C39.9154 31.8133 40.6148 31.9046 41.0709 32.2088C41.7094 32.6346 41.7702 32.6346 41.7702 32.1783C41.7702 31.935 42.196 31.3875 42.7129 31.0225C43.2906 30.5967 43.5643 30.1404 43.5035 29.8058C43.4123 29.5321 43.5339 29.1367 43.7772 28.9237C44.811 28.0721 43.8684 24.5742 42.3784 23.8746C41.9527 23.6921 40.5844 23.4488 39.3376 23.3271C37.3307 23.175 36.9354 23.2358 35.932 23.8442Z" fill="white"/>
<path d="M47.93 44.49L47.88 46.63L48.75 46.7C48.75 46.8867 48.6933 47.0867 48.58 47.3H46.26L46.23 46.95C46.5367 46.85 46.8367 46.7733 47.13 46.72C47.09 44 47.0567 41.9767 47.03 40.65C46.73 40.6433 46.4367 40.6033 46.15 40.53L46.19 40.01C46.5767 39.91 47.1167 39.86 47.81 39.86C47.87 39.9667 47.9267 40.1633 47.98 40.45C48.8333 40.0167 49.3733 39.8 49.6 39.8C50.22 39.8 50.68 40.0433 50.98 40.53C51.28 41.01 51.43 41.6367 51.43 42.41C51.43 43.1767 51.26 43.82 50.92 44.34C50.5867 44.86 50.1 45.12 49.46 45.12C49.22 45.12 48.9567 45.06 48.67 44.94C48.39 44.82 48.1433 44.67 47.93 44.49ZM49.42 40.55C49.0067 40.55 48.5267 40.6967 47.98 40.99C47.9667 42.23 47.9533 43.16 47.94 43.78C48.1067 43.9467 48.3267 44.1 48.6 44.24C48.88 44.3733 49.1233 44.44 49.33 44.44C50.1167 44.44 50.51 43.7933 50.51 42.5C50.51 42.0067 50.4533 41.62 50.34 41.34C50.2267 41.0533 50.0967 40.85 49.95 40.73C49.8033 40.61 49.6267 40.55 49.42 40.55ZM56.721 40.64C56.6877 40.6067 56.6143 40.59 56.501 40.59C56.3877 40.59 56.2177 40.63 55.991 40.71C55.771 40.79 55.571 40.8833 55.391 40.99C55.351 42.47 55.3243 43.58 55.311 44.32L56.151 44.4C56.151 44.5867 56.0943 44.7867 55.981 45H53.681L53.651 44.65C53.9577 44.5433 54.2577 44.4633 54.551 44.41C54.511 42.7167 54.4777 41.4633 54.451 40.65C54.0843 40.63 53.791 40.59 53.571 40.53L53.611 40.01C53.9643 39.91 54.4877 39.86 55.181 39.86C55.2877 40.0267 55.3543 40.24 55.381 40.5C56.1477 40.0333 56.6043 39.8 56.751 39.8C56.8977 39.8 57.0677 39.83 57.261 39.89C57.4543 39.9433 57.5977 40.0033 57.691 40.07C57.691 40.7367 57.6277 41.28 57.501 41.7C57.4077 41.7267 57.2977 41.74 57.171 41.74C57.051 41.74 56.9677 41.7367 56.921 41.73L56.721 40.64ZM62.1832 44.44C62.4765 44.44 62.9365 44.3 63.5632 44.02C63.6899 44.1933 63.7565 44.3467 63.7632 44.48C63.4232 44.68 63.0899 44.8367 62.7632 44.95C62.4365 45.0633 62.2032 45.12 62.0632 45.12C61.2899 45.12 60.6999 44.89 60.2932 44.43C59.8865 43.9633 59.6832 43.3133 59.6832 42.48C59.6832 41.6467 59.8799 40.9933 60.2732 40.52C60.6732 40.04 61.2699 39.8 62.0632 39.8C62.6765 39.8 63.1432 40.02 63.4632 40.46C63.7899 40.9 63.9532 41.49 63.9532 42.23C63.8999 42.3233 63.8565 42.3867 63.8232 42.42L60.6032 42.37C60.6099 43.0433 60.7265 43.5567 60.9532 43.91C61.1865 44.2633 61.5965 44.44 62.1832 44.44ZM63.0432 41.8C63.0432 41.36 62.9632 41.02 62.8032 40.78C62.6432 40.5333 62.3765 40.41 62.0032 40.41C61.6299 40.41 61.2965 40.48 61.0032 40.62C60.8032 41.02 60.6765 41.43 60.6232 41.85C61.1499 41.8433 61.9565 41.8267 63.0432 41.8ZM71.1104 40.92C71.1371 41.1333 71.1504 41.38 71.1504 41.66C71.1504 41.94 71.1237 42.8267 71.0704 44.32L71.9104 44.4C71.9104 44.5867 71.8537 44.7867 71.7404 45H69.4404L69.4104 44.65C69.7171 44.5433 70.0171 44.4633 70.3104 44.41C70.2704 42.6367 70.2337 41.65 70.2004 41.45C70.1737 41.25 70.1271 41.0833 70.0604 40.95C69.9937 40.81 69.8904 40.7133 69.7504 40.66C69.6104 40.6067 69.3971 40.58 69.1104 40.58C68.8304 40.58 68.4604 40.6867 68.0004 40.9C67.9604 42.42 67.9337 43.56 67.9204 44.32L68.7604 44.4C68.7604 44.5867 68.7037 44.7867 68.5904 45H66.2904L66.2604 44.65C66.5671 44.5433 66.8671 44.4633 67.1604 44.41C67.1537 43.93 67.1371 43.2533 67.1104 42.38C67.0837 41.5 67.0671 40.9233 67.0604 40.65C66.6937 40.63 66.4004 40.59 66.1804 40.53L66.2204 40.01C66.5804 39.91 67.1037 39.86 67.7904 39.86C67.8837 40.0267 67.9437 40.2 67.9704 40.38C68.2637 40.2267 68.5537 40.0933 68.8404 39.98C69.1271 39.86 69.3071 39.8 69.3804 39.8C70.1204 39.8 70.6371 40.0267 70.9304 40.48C71.2371 40.3133 71.5537 40.16 71.8804 40.02C72.2137 39.8733 72.4137 39.8 72.4804 39.8C73.0871 39.8 73.5404 39.95 73.8404 40.25C74.1471 40.5433 74.3004 41.0267 74.3004 41.7C74.3004 41.9 74.2737 42.7733 74.2204 44.32L75.0604 44.4C75.0604 44.5867 75.0037 44.7867 74.8904 45H72.5904L72.5604 44.65C72.8671 44.5433 73.1671 44.4633 73.4604 44.41C73.4337 43.3567 73.4104 42.56 73.3904 42.02C73.3704 41.48 73.2937 41.1067 73.1604 40.9C73.0271 40.6867 72.7604 40.58 72.3604 40.58C71.9604 40.58 71.5437 40.6933 71.1104 40.92ZM78.8182 38.97C78.6449 39.01 78.4749 39.03 78.3082 39.03C78.1482 39.03 77.9882 39.02 77.8282 39C77.7882 38.8133 77.7682 38.6267 77.7682 38.44C77.7682 38.2467 77.7749 38.1033 77.7882 38.01C77.9349 37.9767 78.0882 37.96 78.2482 37.96C78.4149 37.96 78.5915 37.9667 78.7782 37.98C78.8182 38.1533 78.8382 38.3233 78.8382 38.49C78.8382 38.65 78.8315 38.81 78.8182 38.97ZM76.9982 40.02C77.5649 39.92 78.0049 39.87 78.3182 39.87C78.6315 39.87 78.8315 39.8767 78.9182 39.89C78.9182 40.05 78.8982 40.2267 78.8582 40.42C78.8182 40.6133 78.7949 40.7067 78.7882 40.7L78.6982 44.32L79.5382 44.4C79.5382 44.5867 79.4815 44.7867 79.3682 45H77.0682L77.0382 44.65C77.3449 44.5433 77.6449 44.4633 77.9382 44.41C77.8982 42.7433 77.8649 41.4933 77.8382 40.66C77.4515 40.66 77.1582 40.62 76.9582 40.54L76.9982 40.02ZM84.1744 44.34C84.3677 44.34 84.5844 44.3 84.8244 44.22C85.0644 44.1333 85.261 44.03 85.4144 43.91C85.3877 42.49 85.3644 41.4133 85.3444 40.68C84.931 40.68 84.6244 40.64 84.4244 40.56L84.4644 40.04C85.031 39.94 85.4744 39.89 85.7944 39.89C86.121 39.89 86.3277 39.8967 86.4144 39.91C86.4144 40.03 86.3944 40.19 86.3544 40.39C86.321 40.59 86.2977 40.7 86.2844 40.72L86.1644 44.29C86.5177 44.31 86.8044 44.35 87.0244 44.41L87.0044 44.92C86.711 45.0133 86.4277 45.06 86.1544 45.06C85.881 45.06 85.7144 45.0567 85.6544 45.05C85.5277 44.7967 85.4544 44.5633 85.4344 44.35C85.1077 44.5967 84.8044 44.7867 84.5244 44.92C84.251 45.0533 84.071 45.12 83.9844 45.12C83.3977 45.12 82.971 44.9633 82.7044 44.65C82.4444 44.33 82.3144 43.8633 82.3144 43.25C82.3144 43.2433 82.3444 42.39 82.4044 40.69C82.0177 40.69 81.661 40.6467 81.3344 40.56L81.3744 40.04C81.941 39.94 82.381 39.89 82.6944 39.89C83.0077 39.89 83.2077 39.8967 83.2944 39.91C83.2944 40.07 83.2744 40.2467 83.2344 40.44C83.1944 40.6333 83.171 40.7267 83.1644 40.72L83.1744 42.88C83.1744 43.3867 83.2377 43.7567 83.3644 43.99C83.491 44.2233 83.761 44.34 84.1744 44.34ZM93.8916 40.92C93.9183 41.1333 93.9316 41.38 93.9316 41.66C93.9316 41.94 93.905 42.8267 93.8516 44.32L94.6916 44.4C94.6916 44.5867 94.635 44.7867 94.5216 45H92.2216L92.1916 44.65C92.4983 44.5433 92.7983 44.4633 93.0916 44.41C93.0516 42.6367 93.015 41.65 92.9816 41.45C92.955 41.25 92.9083 41.0833 92.8416 40.95C92.775 40.81 92.6716 40.7133 92.5316 40.66C92.3916 40.6067 92.1783 40.58 91.8916 40.58C91.6116 40.58 91.2416 40.6867 90.7816 40.9C90.7416 42.42 90.715 43.56 90.7016 44.32L91.5416 44.4C91.5416 44.5867 91.485 44.7867 91.3716 45H89.0716L89.0416 44.65C89.3483 44.5433 89.6483 44.4633 89.9416 44.41C89.935 43.93 89.9183 43.2533 89.8916 42.38C89.865 41.5 89.8483 40.9233 89.8416 40.65C89.475 40.63 89.1816 40.59 88.9616 40.53L89.0016 40.01C89.3616 39.91 89.885 39.86 90.5716 39.86C90.665 40.0267 90.725 40.2 90.7516 40.38C91.045 40.2267 91.335 40.0933 91.6216 39.98C91.9083 39.86 92.0883 39.8 92.1616 39.8C92.9016 39.8 93.4183 40.0267 93.7116 40.48C94.0183 40.3133 94.335 40.16 94.6616 40.02C94.995 39.8733 95.195 39.8 95.2616 39.8C95.8683 39.8 96.3216 39.95 96.6216 40.25C96.9283 40.5433 97.0816 41.0267 97.0816 41.7C97.0816 41.9 97.055 42.7733 97.0016 44.32L97.8416 44.4C97.8416 44.5867 97.785 44.7867 97.6716 45H95.3716L95.3416 44.65C95.6483 44.5433 95.9483 44.4633 96.2416 44.41C96.215 43.3567 96.1916 42.56 96.1716 42.02C96.1516 41.48 96.075 41.1067 95.9416 40.9C95.8083 40.6867 95.5416 40.58 95.1416 40.58C94.7416 40.58 94.325 40.6933 93.8916 40.92ZM106.537 44.39L107.427 44.37C108.347 44.37 108.807 44.75 108.807 45.51C108.807 45.8633 108.654 46.19 108.347 46.49C108.047 46.7967 107.687 47.0267 107.267 47.18C106.847 47.3333 106.454 47.41 106.087 47.41C105.727 47.41 105.39 47.3567 105.077 47.25C104.764 47.15 104.497 46.9833 104.277 46.75C104.057 46.5167 103.947 46.2467 103.947 45.94C103.947 45.8667 104.064 45.6733 104.297 45.36C104.537 45.0533 104.694 44.8733 104.767 44.82C104.707 44.78 104.59 44.6667 104.417 44.48C104.244 44.2867 104.147 44.1533 104.127 44.08C104.294 43.7733 104.557 43.4733 104.917 43.18C104.384 42.86 104.117 42.3333 104.117 41.6C104.117 41.0133 104.304 40.5667 104.677 40.26C105.05 39.9533 105.517 39.8 106.077 39.8C106.637 39.8 107.07 39.89 107.377 40.07C107.91 39.9633 108.434 39.91 108.947 39.91C109.074 39.91 109.137 39.9867 109.137 40.14C109.137 40.4067 109.087 40.59 108.987 40.69L107.837 40.5C108.077 40.8067 108.197 41.1733 108.197 41.6C108.197 42.2667 108 42.7467 107.607 43.04C107.214 43.3267 106.73 43.47 106.157 43.47C105.977 43.47 105.764 43.4467 105.517 43.4C105.417 43.6067 105.29 43.83 105.137 44.07C105.257 44.2833 105.724 44.39 106.537 44.39ZM107.807 46.23C107.874 46.0433 107.907 45.85 107.907 45.65C107.907 45.4567 107.83 45.3 107.677 45.18C107.524 45.06 107.327 45 107.087 45C106.134 45 105.55 44.99 105.337 44.97C105.157 45.2567 105.03 45.4967 104.957 45.69C104.89 45.89 104.857 46.0033 104.857 46.03C104.857 46.29 104.98 46.4833 105.227 46.61C105.474 46.7367 105.757 46.8 106.077 46.8C106.404 46.8 106.73 46.7467 107.057 46.64C107.39 46.5333 107.64 46.3967 107.807 46.23ZM107.297 41.64C107.297 40.8133 106.917 40.4 106.157 40.4C105.397 40.4 105.017 40.8 105.017 41.6C105.017 42.0067 105.117 42.32 105.317 42.54C105.517 42.76 105.807 42.87 106.187 42.87C106.927 42.87 107.297 42.46 107.297 41.64ZM113.488 44.52C114.048 44.52 114.425 44.3467 114.618 44C114.818 43.6467 114.918 43.1467 114.918 42.5C114.918 41.4733 114.692 40.83 114.238 40.57C114.052 40.4633 113.788 40.41 113.448 40.41C113.115 40.41 112.798 40.48 112.498 40.62C112.232 41.1333 112.098 41.73 112.098 42.41C112.098 43.0633 112.185 43.5667 112.358 43.92C112.558 44.32 112.935 44.52 113.488 44.52ZM111.178 42.5C111.178 41.6533 111.372 40.9933 111.758 40.52C112.145 40.04 112.742 39.8 113.548 39.8C114.355 39.8 114.938 40.02 115.298 40.46C115.658 40.8933 115.838 41.5367 115.838 42.39C115.838 43.2433 115.645 43.9133 115.258 44.4C114.878 44.8867 114.298 45.13 113.518 45.13C112.738 45.13 112.152 44.9033 111.758 44.45C111.372 43.9967 111.178 43.3467 111.178 42.5ZM120.369 44.52C120.929 44.52 121.306 44.3467 121.499 44C121.699 43.6467 121.799 43.1467 121.799 42.5C121.799 41.4733 121.573 40.83 121.119 40.57C120.933 40.4633 120.669 40.41 120.329 40.41C119.996 40.41 119.679 40.48 119.379 40.62C119.113 41.1333 118.979 41.73 118.979 42.41C118.979 43.0633 119.066 43.5667 119.239 43.92C119.439 44.32 119.816 44.52 120.369 44.52ZM118.059 42.5C118.059 41.6533 118.253 40.9933 118.639 40.52C119.026 40.04 119.623 39.8 120.429 39.8C121.236 39.8 121.819 40.02 122.179 40.46C122.539 40.8933 122.719 41.5367 122.719 42.39C122.719 43.2433 122.526 43.9133 122.139 44.4C121.759 44.8867 121.179 45.13 120.399 45.13C119.619 45.13 119.033 44.9033 118.639 44.45C118.253 43.9967 118.059 43.3467 118.059 42.5ZM128.38 40.37L128.35 38.37C127.983 38.35 127.69 38.31 127.47 38.25L127.51 37.73C127.85 37.63 128.343 37.58 128.99 37.58C129.197 37.58 129.343 37.5867 129.43 37.6C129.43 37.72 129.41 37.88 129.37 38.08C129.337 38.2733 129.313 38.38 129.3 38.4L129.21 44.31C129.483 44.3233 129.773 44.37 130.08 44.45L130.06 44.8C129.6 45.0133 129.193 45.12 128.84 45.12C128.767 45.12 128.71 45.1167 128.67 45.11C128.617 45.01 128.55 44.78 128.47 44.42C127.703 44.8533 127.167 45.0867 126.86 45.12C126.22 45.12 125.74 44.8767 125.42 44.39C125.1 43.9033 124.94 43.28 124.94 42.52C124.94 41.7533 125.1 41.11 125.42 40.59C125.747 40.0633 126.227 39.8 126.86 39.8C127.353 39.8 127.86 39.99 128.38 40.37ZM127.03 40.48C126.25 40.48 125.86 41.12 125.86 42.4C125.86 42.9 125.94 43.3333 126.1 43.7C126.18 43.9 126.297 44.06 126.45 44.18C126.61 44.3 126.793 44.36 127 44.36C127.207 44.36 127.447 44.3133 127.72 44.22C128 44.1267 128.24 44.02 128.44 43.9L128.38 41.05C128.2 40.8967 127.98 40.7633 127.72 40.65C127.46 40.5367 127.23 40.48 127.03 40.48ZM132.924 44.36C133.158 44.46 133.441 44.51 133.774 44.51C134.114 44.51 134.381 44.4467 134.574 44.32C134.768 44.1933 134.864 44.02 134.864 43.8C134.864 43.58 134.774 43.3967 134.594 43.25C134.414 43.1033 134.194 42.9733 133.934 42.86C133.674 42.7467 133.414 42.6267 133.154 42.5C132.894 42.3733 132.674 42.2067 132.494 42C132.314 41.7933 132.224 41.5533 132.224 41.28C132.224 40.82 132.378 40.46 132.684 40.2C132.991 39.9333 133.414 39.8 133.954 39.8C134.501 39.8 135.014 39.9233 135.494 40.17C135.501 40.2367 135.504 40.4167 135.504 40.71C135.504 40.9967 135.474 41.2433 135.414 41.45C135.254 41.5033 135.064 41.53 134.844 41.53L134.514 40.51C134.368 40.4367 134.168 40.4 133.914 40.4C133.668 40.4 133.471 40.4667 133.324 40.6C133.178 40.7267 133.104 40.89 133.104 41.09C133.104 41.2833 133.194 41.4533 133.374 41.6C133.561 41.7467 133.784 41.88 134.044 42C134.304 42.1133 134.564 42.2367 134.824 42.37C135.084 42.4967 135.304 42.6667 135.484 42.88C135.671 43.0867 135.764 43.3267 135.764 43.6C135.764 44.08 135.578 44.4567 135.204 44.73C134.838 44.9967 134.384 45.13 133.844 45.13C133.551 45.13 133.238 45.0833 132.904 44.99C132.571 44.89 132.291 44.7633 132.064 44.61C132.064 44.1633 132.104 43.7667 132.184 43.42C132.338 43.3933 132.544 43.38 132.804 43.38L132.924 44.36Z" fill="white"/>
</svg>
