<svg width="150" height="150" viewBox="0 0 150 150" fill="none" xmlns="http://www.w3.org/2000/svg">
<path d="M73.8691 135.845C73.4557 135.845 73.0426 135.729 72.6811 135.496C72.2209 135.201 71.7351 134.894 71.226 134.579C70.1941 133.94 69.8754 132.586 70.5141 131.554C71.1527 130.522 72.5077 130.204 73.5386 130.842C73.6608 130.917 73.7815 130.992 73.9011 131.067C74.0217 130.996 74.144 130.925 74.2672 130.852C75.3143 130.239 76.66 130.59 77.274 131.637C77.8875 132.685 77.536 134.03 76.4886 134.644C75.9706 134.947 75.477 135.242 75.0093 135.526C74.659 135.739 74.2637 135.845 73.8691 135.845Z" fill="#B00B0B"/>
<path d="M63.8719 130.167C63.5427 130.167 63.2084 130.094 62.8937 129.937C61.9451 129.464 60.9807 129.002 60.0271 128.565C58.9241 128.059 58.4403 126.755 58.9466 125.652C59.4528 124.549 60.7574 124.065 61.8598 124.571C62.8557 125.029 63.8632 125.51 64.8537 126.004C65.9397 126.545 66.3818 127.864 65.8404 128.95C65.4561 129.721 64.6788 130.167 63.8719 130.167ZM51.8942 125.161C51.6613 125.161 51.4246 125.125 51.1919 125.046C50.1888 124.708 49.1743 124.387 48.1762 124.093C47.0119 123.751 46.3463 122.529 46.6891 121.365C47.0318 120.201 48.2521 119.535 49.4174 119.878C50.4701 120.188 51.5394 120.525 52.5964 120.882C53.7464 121.27 54.3643 122.516 53.9763 123.666C53.6669 124.583 52.8112 125.161 51.8942 125.161ZM39.3033 122.036C39.1911 122.036 39.0774 122.028 38.9632 122.01C37.9226 121.848 36.8763 121.712 35.8531 121.604C34.6463 121.477 33.7706 120.396 33.8972 119.189C34.0241 117.983 35.1033 117.108 36.3118 117.234C37.4072 117.349 38.5267 117.495 39.6382 117.667C40.8376 117.854 41.6586 118.977 41.4719 120.176C41.3032 121.261 40.3679 122.036 39.3033 122.036Z" fill="#B00B0B"/>
<path d="M24.5937 121.529C23.6831 121.529 22.8567 120.963 22.535 120.096C22.1881 119.161 22.5138 118.11 23.3286 117.536C23.7862 117.213 24.2436 116.879 24.689 116.542C25.6572 115.81 27.035 116.002 27.7668 116.97C28.0023 117.281 28.1421 117.636 28.1913 117.997C28.3902 118.303 28.5153 118.663 28.54 119.053C28.6165 120.265 27.6965 121.308 26.4851 121.385C25.9228 121.42 25.3577 121.465 24.8061 121.519C24.7352 121.526 24.6643 121.529 24.5937 121.529Z" fill="#B00B0B"/>
<path d="M33.9377 113.073C33.4295 113.073 32.9189 112.898 32.5037 112.54C31.5844 111.747 31.4821 110.36 32.2746 109.441C33.0266 108.569 33.7552 107.659 34.4402 106.737C35.1639 105.763 36.5402 105.559 37.5141 106.283C38.4882 107.007 38.6917 108.383 37.9679 109.357C37.2199 110.364 36.4239 111.358 35.6027 112.311C35.168 112.814 34.5545 113.073 33.9377 113.073ZM41.6856 100.879C41.3854 100.879 41.0806 100.817 40.7886 100.687C39.6811 100.191 39.1851 98.8909 39.6815 97.7831C40.1496 96.7381 40.5881 95.6568 40.9851 94.5696C41.4015 93.4296 42.6627 92.8428 43.8029 93.2594C44.9429 93.6758 45.5294 94.9375 45.1131 96.0771C44.6804 97.2614 44.2025 98.4396 43.6919 99.5794C43.3269 100.396 42.525 100.879 41.6856 100.879ZM45.7271 87.0004C45.6164 87.0004 45.5045 86.9923 45.3917 86.9749C44.192 86.7915 43.3687 85.67 43.5521 84.4706C43.7259 83.3363 43.8682 82.17 43.9755 81.0045C44.0869 79.796 45.1587 78.9066 46.365 79.0179C47.5735 79.1293 48.4629 80.1989 48.3516 81.4074C48.2359 82.6601 48.0829 83.9146 47.896 85.1356C47.7299 86.2223 46.7939 87.0004 45.7271 87.0004ZM46.1832 72.5454C45.0569 72.5454 44.098 71.684 43.9971 70.5409C43.8944 69.3763 43.757 68.2094 43.5879 67.0721C43.4097 65.8718 44.2382 64.7541 45.4382 64.5758C46.638 64.3968 47.7562 65.2255 47.9346 66.4261C48.1164 67.6493 48.2642 68.904 48.3744 70.155C48.481 71.3638 47.5872 72.4303 46.3784 72.5365C46.3131 72.5424 46.2477 72.5454 46.1832 72.5454ZM43.1335 58.4149C42.2332 58.4149 41.3886 57.857 41.066 56.9611C40.6737 55.8719 40.2404 54.7885 39.7775 53.7411C39.2871 52.6311 39.7892 51.3339 40.8994 50.8431C42.0085 50.3526 43.3064 50.8545 43.7974 51.9646C44.3019 53.1063 44.7741 54.2866 45.201 55.4731C45.612 56.6149 45.0196 57.8738 43.8776 58.2848C43.6321 58.373 43.3807 58.4149 43.1335 58.4149ZM36.3536 45.6575C35.6784 45.6575 35.0121 45.3473 34.5815 44.7614C33.9026 43.8376 33.1784 42.9241 32.4292 42.0464C31.6417 41.1233 31.7514 39.7364 32.6745 38.9489C33.5974 38.1608 34.9846 38.2709 35.7721 39.1941C36.5897 40.1524 37.3805 41.1496 38.122 42.1589C38.8406 43.1365 38.6306 44.512 37.6529 45.2308C37.2615 45.5186 36.8054 45.6575 36.3536 45.6575Z" fill="#B00B0B"/>
<path d="M26.1905 35.345C25.7256 35.345 25.2571 35.1983 24.8592 34.8942C24.4151 34.5555 23.9592 34.2195 23.5037 33.8952C22.7001 33.3233 22.3761 32.2859 22.7112 31.3584C23.0464 30.4308 23.9534 29.8393 24.9419 29.9138C25.4941 29.955 26.0537 29.9852 26.6051 30.0034C27.818 30.0435 28.769 31.0593 28.7287 32.2718C28.715 32.687 28.587 33.0717 28.3757 33.3963C28.3327 33.7777 28.1886 34.153 27.939 34.4803C27.5069 35.0472 26.8524 35.345 26.1905 35.345Z" fill="#B00B0B"/>
<path d="M37.8101 33.2629C36.8143 33.2629 35.9122 32.5816 35.6735 31.5702C35.3948 30.3892 36.1261 29.2057 37.3073 28.9271C38.4626 28.6543 39.6297 28.3258 40.7752 27.9508C41.929 27.5745 43.1697 28.2028 43.5467 29.356C43.9241 30.5093 43.2951 31.7501 42.1416 32.1274C40.879 32.5406 39.5922 32.9026 38.3166 33.2036C38.147 33.2437 37.9773 33.2629 37.8101 33.2629ZM51.7548 27.4718C51.011 27.4718 50.2853 27.094 49.8722 26.4111C49.2443 25.3724 49.5775 24.0216 50.6161 23.3941C51.6391 22.7756 52.6662 22.1067 53.6691 21.4057C54.6643 20.7104 56.0336 20.9536 56.7288 21.9479C57.4241 22.9426 57.1812 24.3124 56.1866 25.0077C55.1046 25.7642 53.9952 26.4863 52.8892 27.1548C52.5341 27.3696 52.1421 27.4718 51.7548 27.4718Z" fill="#B00B0B"/>
<path d="M63.6059 18.0782C63.0451 18.0782 62.4847 17.8649 62.0557 17.438C61.1956 16.582 61.1927 15.191 62.0487 14.3309C62.4455 13.9327 62.843 13.5219 63.2315 13.1107C63.6466 12.6712 64.2246 12.4219 64.829 12.4219H66.5869C67.8006 12.4219 68.7841 13.4057 68.7841 14.6192C68.7841 15.8327 67.8006 16.8164 66.5869 16.8164H65.7671C65.5661 17.0233 65.3646 17.2287 65.163 17.431C64.7341 17.8623 64.1699 18.0782 63.6059 18.0782Z" fill="#B00B0B"/>
<path d="M76.2016 16.8164H73.7981C72.5843 16.8164 71.6008 15.8327 71.6008 14.6192C71.6008 13.4057 72.5843 12.4219 73.7981 12.4219H76.2016C77.4153 12.4219 78.3988 13.4057 78.3988 14.6192C78.3988 15.8327 77.4151 16.8164 76.2016 16.8164Z" fill="#B00B0B"/>
<path d="M86.3931 18.0782C85.8288 18.0782 85.2652 17.8625 84.836 17.431C84.6345 17.2287 84.4328 17.0233 84.2318 16.8164H83.4121C82.1983 16.8164 81.2148 15.8327 81.2148 14.6192C81.2148 13.4057 82.1983 12.4219 83.4121 12.4219H85.17C85.7743 12.4219 86.3523 12.6712 86.7675 13.1107C87.156 13.5219 87.5538 13.9324 87.9502 14.3309C88.8063 15.191 88.8031 16.5823 87.9432 17.438C87.5146 17.8649 86.9536 18.0782 86.3931 18.0782Z" fill="#B00B0B"/>
<path d="M112.185 33.2626C112.018 33.2626 111.848 33.2434 111.678 33.2033C110.403 32.9024 109.117 32.5401 107.854 32.1267C106.7 31.7491 106.072 30.5083 106.449 29.3549C106.826 28.2018 108.065 27.5728 109.221 27.9501C110.367 28.3251 111.533 28.6536 112.688 28.9263C113.869 29.2052 114.601 30.3888 114.322 31.5697C114.083 32.5811 113.181 33.2626 112.185 33.2626ZM98.2414 27.4708C97.8544 27.4708 97.4624 27.3686 97.1068 27.1536C96.0016 26.4856 94.8921 25.7631 93.8094 25.0061C92.8144 24.3108 92.5719 22.9409 93.2674 21.9463C93.9623 20.9519 95.3323 20.7091 96.3269 21.4043C97.3305 22.1059 98.3578 22.7748 99.3799 23.3927C100.418 24.0206 100.752 25.3711 100.124 26.4097C99.7113 27.0929 98.9853 27.4708 98.2414 27.4708Z" fill="#B00B0B"/>
<path d="M123.809 35.3448C123.147 35.3448 122.493 35.0472 122.061 34.4805C121.811 34.1533 121.667 33.7785 121.624 33.3974C121.413 33.0728 121.284 32.6879 121.271 32.2722C121.23 31.0593 122.181 30.0438 123.394 30.0037C123.947 29.9855 124.506 29.9553 125.057 29.9138C126.044 29.8393 126.954 30.4308 127.289 31.3584C127.624 32.2862 127.3 33.3237 126.496 33.8955C126.04 34.2198 125.584 34.5558 125.14 34.8939C124.742 35.198 124.274 35.3448 123.809 35.3448Z" fill="#B00B0B"/>
<path d="M116.072 113.085C115.456 113.085 114.842 112.827 114.407 112.323C113.585 111.369 112.789 110.375 112.041 109.369C111.317 108.396 111.519 107.019 112.493 106.295C113.466 105.571 114.843 105.773 115.567 106.747C116.252 107.668 116.982 108.579 117.735 109.452C118.528 110.371 118.425 111.759 117.506 112.551C117.092 112.91 116.581 113.085 116.072 113.085ZM108.318 100.888C107.479 100.888 106.677 100.405 106.311 99.5885C105.8 98.4465 105.321 97.268 104.889 96.0853C104.473 94.9453 105.059 93.6838 106.199 93.2675C107.34 92.8505 108.601 93.4374 109.017 94.5774C109.414 95.6628 109.853 96.7444 110.322 97.7924C110.818 98.8998 110.323 100.2 109.215 100.696C108.923 100.826 108.618 100.888 108.318 100.888ZM104.273 87.0041C103.206 87.0041 102.27 86.2263 102.104 85.1394C101.917 83.9191 101.763 82.6644 101.648 81.4093C101.537 80.2008 102.426 79.1311 103.634 79.0198C104.839 78.9088 105.912 79.7976 106.024 81.0064C106.131 82.1739 106.274 83.3405 106.447 84.4734C106.631 85.6731 105.808 86.7943 104.608 86.9783C104.496 86.9956 104.383 87.0041 104.273 87.0041ZM103.816 72.542C103.751 72.542 103.686 72.539 103.62 72.5331C102.411 72.4265 101.518 71.3601 101.625 70.1514C101.735 68.8965 101.883 67.6415 102.065 66.421C102.244 65.2206 103.362 64.393 104.562 64.5709C105.762 64.7493 106.59 65.8673 106.411 67.0675C106.243 68.2019 106.105 69.3694 106.002 70.538C105.902 71.6809 104.942 72.542 103.816 72.542ZM106.869 58.4048C106.622 58.4048 106.371 58.3629 106.125 58.2744C104.983 57.8634 104.391 56.6048 104.802 55.4628C105.229 54.2771 105.701 53.0959 106.207 51.9524C106.698 50.8424 107.996 50.3408 109.105 50.8318C110.216 51.3225 110.717 52.6201 110.226 53.7301C109.762 54.7793 109.328 55.863 108.937 56.9514C108.614 57.847 107.77 58.4048 106.869 58.4048ZM113.657 45.6434C113.204 45.6434 112.748 45.5041 112.357 45.2159C111.379 44.4966 111.17 43.1215 111.889 42.1439C112.633 41.1323 113.424 40.1346 114.241 39.1784C115.029 38.2559 116.416 38.1465 117.339 38.9346C118.261 39.7228 118.37 41.1096 117.583 42.0325C116.834 42.9081 116.11 43.8216 115.428 44.748C114.998 45.3334 114.332 45.6434 113.657 45.6434Z" fill="#B00B0B"/>
<path d="M125.444 121.556C125.371 121.556 125.297 121.552 125.225 121.545C124.673 121.489 124.108 121.442 123.543 121.404C122.332 121.322 121.417 120.275 121.499 119.064C121.525 118.678 121.65 118.321 121.846 118.018C121.896 117.659 122.035 117.309 122.269 116.999C123 116.031 124.377 115.838 125.346 116.569C125.792 116.905 126.25 117.239 126.707 117.561C127.524 118.136 127.85 119.189 127.502 120.125C127.179 120.991 126.352 121.555 125.444 121.556Z" fill="#B00B0B"/>
<path d="M84.371 130.19C83.5483 130.19 82.7594 129.726 82.3838 128.934C81.8646 127.836 82.3321 126.526 83.4288 126.008C84.4764 125.511 85.5355 125.029 86.577 124.573C87.6874 124.086 88.984 124.593 89.4706 125.705C89.957 126.816 89.4501 128.113 88.3384 128.599C87.3373 129.038 86.318 129.501 85.3103 129.979C85.0064 130.123 84.6861 130.19 84.371 130.19ZM96.9671 125.164C96.0396 125.164 95.1774 124.571 94.8768 123.641C94.5039 122.486 95.1375 121.248 96.2921 120.875C97.4004 120.517 98.5196 120.178 99.6176 119.868C100.787 119.538 102 120.217 102.33 121.385C102.66 122.552 101.98 123.766 100.812 124.096C99.7665 124.392 98.7 124.715 97.6433 125.056C97.4186 125.129 97.1913 125.164 96.9671 125.164ZM110.153 122.022C109.083 122.022 108.145 121.239 107.983 120.148C107.804 118.948 108.632 117.83 109.833 117.651C110.993 117.478 112.162 117.333 113.306 117.218C114.513 117.096 115.591 117.979 115.711 119.186C115.831 120.394 114.95 121.47 113.743 121.591C112.669 121.698 111.571 121.835 110.479 121.997C110.37 122.014 110.261 122.022 110.153 122.022Z" fill="#B00B0B"/>
<path fill-rule="evenodd" clip-rule="evenodd" d="M11.406 137.145C12.0764 137.413 12.7874 137.545 13.4979 137.545C14.334 137.545 15.1686 137.361 15.9359 136.994C22.7024 133.765 30.6986 133.051 39.7004 134.874C40.8901 135.115 42.0494 134.345 42.2899 133.156C42.531 131.966 41.762 130.808 40.5725 130.566C30.6143 128.551 21.6886 129.379 14.043 133.029C13.6095 133.235 13.2239 133.139 13.0335 133.062C12.8436 132.986 12.4994 132.794 12.3286 132.349L6.49531 117.164C6.32567 116.722 6.44843 116.35 6.53691 116.168C6.62597 115.984 6.84276 115.655 7.29774 115.513C11.1699 114.306 18.6204 111.269 25.0194 104.493C32.0785 97.0171 35.7093 87.3334 35.8109 75.6829L35.8106 75.6216L35.8109 75.5575C35.7093 63.934 32.0785 54.2503 25.0194 46.7747C18.6206 39.999 11.1699 36.9615 7.29774 35.7539C6.84276 35.6121 6.62597 35.2834 6.53691 35.1C6.44843 34.9178 6.32567 34.5457 6.49531 34.1039L12.3195 18.9427C12.4909 18.4969 12.8366 18.3044 13.0274 18.2296C13.2224 18.1529 13.6156 18.0571 14.0583 18.2736C23.992 23.1413 34.0915 22.9676 44.0755 17.7571C51.9843 13.6301 57.5589 7.3585 59.5889 4.85361C59.8253 4.56181 60.1789 4.39453 60.5595 4.39453H70.976C72.1898 4.39453 73.1733 3.41074 73.1733 2.19726C73.1733 0.983789 72.1898 0 70.976 0H60.5595C58.847 0 57.2489 0.76084 56.1746 2.08681C38.9899 23.2934 21.0734 16.8172 15.9919 14.3274C14.5639 13.6277 12.8988 13.5595 11.421 14.1393C9.95116 14.7164 8.78368 15.893 8.21737 17.3669L2.39316 32.528C1.83534 33.9803 1.90389 35.6156 2.58153 37.0151C3.26004 38.4164 4.50223 39.4858 5.98963 39.9495C11.8974 41.792 31.1911 49.8076 31.4164 75.5769L31.4166 75.6011C31.4164 75.6234 31.4161 75.6504 31.4164 75.6724C31.1911 101.461 11.8974 109.476 5.98934 111.319C4.50194 111.783 3.25976 112.853 2.58153 114.253C1.90389 115.653 1.83534 117.288 2.39316 118.74L8.22616 133.925C8.78896 135.39 9.94794 136.564 11.406 137.145ZM69.6398 148.635C70.8081 149.515 72.2635 150 73.7381 150C75.154 150 76.514 149.57 77.6711 148.755C79.4635 147.494 89.0354 140.996 101.484 136.976C114.325 132.829 125.291 132.839 134.076 137.006C135.494 137.679 137.142 137.731 138.597 137.149C140.052 136.566 141.21 135.394 141.771 133.93L147.607 118.74C148.165 117.288 148.096 115.652 147.419 114.253C146.74 112.852 145.499 111.783 144.01 111.319C138.661 109.65 121.036 102.465 118.815 80.0481C118.695 78.8405 117.619 77.9579 116.412 78.0782C115.204 78.198 114.322 79.2739 114.441 80.4815C116.93 105.586 136.701 113.642 142.702 115.513C143.157 115.655 143.375 115.984 143.464 116.168C143.551 116.35 143.675 116.722 143.505 117.164L137.67 132.354C137.499 132.799 137.155 132.993 136.965 133.068C136.775 133.144 136.391 133.241 135.96 133.036C126.129 128.372 114.076 128.291 100.133 132.794C90.0228 136.06 80.5941 141.324 75.142 145.161C74.7295 145.451 74.244 145.605 73.7384 145.605C73.2116 145.605 72.6948 145.435 72.2838 145.125C70.0599 143.45 61.9425 137.663 50.8636 133.542C49.7269 133.12 48.461 133.699 48.0383 134.836C47.6153 135.974 48.1941 137.239 49.3318 137.662C57.6921 140.771 65.3038 145.369 69.6398 148.635Z" fill="#B00B0B"/>
<path d="M116.754 72.0929C116.665 72.0929 116.574 72.0872 116.483 72.0761C115.278 71.9279 114.422 70.8314 114.57 69.627C117.551 45.4081 136.856 37.5774 142.701 35.7542C143.157 35.6121 143.374 35.2834 143.462 35.1C143.551 34.9175 143.674 34.5454 143.505 34.1039L137.68 18.9427C137.509 18.4969 137.164 18.3044 136.972 18.2296C136.777 18.1526 136.384 18.0571 135.941 18.2736C126.007 23.1412 115.908 22.9672 105.924 17.7571C98.0156 13.6301 92.4409 7.3585 90.4109 4.85361C90.1748 4.56181 89.8209 4.39452 89.4404 4.39452H81.3457C80.1319 4.39452 79.1484 3.41074 79.1484 2.19726C79.1484 0.983789 80.1319 0 81.3457 0H89.4404C91.1528 0 92.7509 0.76084 93.8256 2.0874C98.1703 7.44844 113.907 24.1764 134.009 14.3276C135.436 13.6277 137.102 13.5591 138.579 14.1395C140.049 14.7167 141.216 15.8932 141.782 17.3671L147.607 32.5284C148.165 33.9806 148.096 35.6159 147.419 37.0154C146.74 38.4164 145.497 39.486 144.01 39.9497C138.8 41.5749 121.591 48.5564 118.932 70.164C118.795 71.277 117.848 72.0929 116.754 72.0929Z" fill="#B00B0B"/>
<path d="M89.5873 76.3432H60.4123C59.1986 76.3432 58.2151 75.3594 58.2151 74.146C58.2151 72.9325 59.1986 71.9487 60.4123 71.9487H89.5873C90.8011 71.9487 91.7846 72.9325 91.7846 74.146C91.7846 75.3594 90.8011 76.3432 89.5873 76.3432Z" fill="#B00B0B"/>
<path d="M84.8548 90.5141H65.1452C63.9315 90.5141 62.948 89.5304 62.948 88.3169C62.948 87.1034 63.9315 86.1196 65.1452 86.1196H84.8548C86.0685 86.1196 87.052 87.1034 87.052 88.3169C87.052 89.5304 86.0683 90.5141 84.8548 90.5141Z" fill="#B00B0B"/>
<path d="M90.7141 97.805H59.2856C58.0719 97.805 57.0884 96.8211 57.0884 95.6076C57.0884 94.3943 58.0719 93.4104 59.2856 93.4104H90.7139C91.9276 93.4104 92.9111 94.3943 92.9111 95.6076C92.9111 96.8211 91.9276 97.805 90.7141 97.805Z" fill="#B00B0B"/>
<path d="M62.3392 67.4576C61.1254 67.4576 60.1419 66.4739 60.1419 65.2604V57.3485C59.5254 57.3915 58.8979 57.1804 58.4277 56.7108C57.5697 55.8526 57.5697 54.4613 58.4277 53.6035L60.7853 51.246C61.4139 50.6175 62.3588 50.4295 63.1799 50.7696C64.0012 51.1098 64.5364 51.911 64.5364 52.7995V65.2604C64.5364 66.4739 63.5529 67.4576 62.3392 67.4576Z" fill="#B00B0B"/>
<path d="M72.6288 67.4578C69.3344 67.4578 66.6541 64.7774 66.6541 61.4829V55.9464C66.6541 52.6521 69.3341 49.9717 72.6288 49.9717C75.9236 49.9717 78.6039 52.6521 78.6039 55.9464V61.4829C78.6039 64.7774 75.9233 67.4578 72.6288 67.4578ZM72.6288 54.3662C71.7576 54.3662 71.0486 55.0752 71.0486 55.9464V61.4829C71.0486 62.3542 71.7576 63.0632 72.6288 63.0632C73.5004 63.0632 74.2094 62.3542 74.2094 61.4829V55.9464C74.2094 55.0752 73.5004 54.3662 72.6288 54.3662Z" fill="#B00B0B"/>
<path d="M86.2405 67.4578C82.9461 67.4578 80.2654 64.7774 80.2654 61.4829V55.9464C80.2654 52.6521 82.9458 49.9717 86.2405 49.9717C89.5352 49.9717 92.2152 52.6521 92.2152 55.9464V61.4829C92.2152 64.7774 89.535 67.4578 86.2405 67.4578ZM86.2405 54.3662C85.3689 54.3662 84.6599 55.0752 84.6599 55.9464V61.4829C84.6599 62.3542 85.3689 63.0632 86.2405 63.0632C87.1118 63.0632 87.8207 62.3542 87.8207 61.4829V55.9464C87.8207 55.0752 87.1118 54.3662 86.2405 54.3662Z" fill="#B00B0B"/>
</svg>
