<svg width="30" height="30" viewBox="0 0 30 30" fill="none" xmlns="http://www.w3.org/2000/svg">
<g clip-path="url(#clip0)">
<path d="M21.8836 17.884L21.8724 17.9777C19.1236 16.6077 18.8361 16.4252 18.4811 16.9577C18.2349 17.3265 17.5174 18.1627 17.3011 18.4102C17.0824 18.654 16.8649 18.6727 16.4936 18.504C16.1186 18.3165 14.9149 17.9227 13.4899 16.6477C12.3799 15.654 11.6349 14.4352 11.4149 14.0602C11.0487 13.4277 11.8149 13.3377 12.5124 12.0177C12.6374 11.7552 12.5737 11.549 12.4812 11.3627C12.3874 11.1752 11.6412 9.33771 11.3287 8.60521C11.0287 7.87521 10.7199 7.96771 10.4887 7.96771C9.76868 7.90521 9.24243 7.91521 8.77868 8.39771C6.76118 10.6152 7.26993 12.9027 8.99618 15.3352C12.3887 19.7752 14.1962 20.5927 17.5011 21.7277C18.3936 22.0115 19.2074 21.9715 19.8511 21.879C20.5686 21.7652 22.0599 20.9777 22.3711 20.0965C22.6899 19.2152 22.6899 18.484 22.5961 18.3152C22.5036 18.1465 22.2586 18.0527 21.8836 17.884Z" fill="white"/>
<path d="M25.65 4.3113C16.0387 -4.97995 0.1325 1.7588 0.12625 14.8663C0.12625 17.4863 0.8125 20.0413 2.12 22.2976L0 30.0001L7.91875 27.9351C17.8 33.2726 29.995 26.1851 30 14.8738C30 10.9038 28.45 7.16755 25.6312 4.36005L25.65 4.3113ZM27.5025 14.8326C27.495 24.3738 17.0212 30.3326 8.7375 25.4626L8.2875 25.1951L3.6 26.4138L4.85625 21.8576L4.5575 21.3888C-0.5975 13.1826 5.325 2.45755 15.09 2.45755C18.4075 2.45755 21.5212 3.7513 23.8662 6.09505C26.21 8.4188 27.5025 11.5326 27.5025 14.8326Z" fill="white"/>
</g>
<defs>
<clipPath id="clip0">
<rect width="30" height="30" fill="white"/>
</clipPath>
</defs>
</svg>
