<svg width="30" height="30" viewBox="0 0 30 30" fill="none" xmlns="http://www.w3.org/2000/svg">
<g clip-path="url(#clip0)">
<path d="M21.8836 17.8838L21.8724 17.9775C19.1236 16.6075 18.8361 16.425 18.4811 16.9575C18.2349 17.3263 17.5174 18.1625 17.3011 18.41C17.0824 18.6538 16.8649 18.6725 16.4936 18.5038C16.1186 18.3163 14.9149 17.9225 13.4899 16.6475C12.3799 15.6538 11.6349 14.435 11.4149 14.06C11.0487 13.4275 11.8149 13.3375 12.5124 12.0175C12.6374 11.755 12.5737 11.5488 12.4812 11.3625C12.3874 11.175 11.6412 9.33753 11.3287 8.60503C11.0287 7.87503 10.7199 7.96753 10.4887 7.96753C9.76868 7.90503 9.24243 7.91503 8.77868 8.39753C6.76118 10.615 7.26993 12.9025 8.99618 15.335C12.3887 19.775 14.1962 20.5925 17.5011 21.7275C18.3936 22.0113 19.2074 21.9713 19.8511 21.8788C20.5686 21.765 22.0599 20.9775 22.3711 20.0963C22.6899 19.215 22.6899 18.4838 22.5961 18.315C22.5036 18.1463 22.2586 18.0525 21.8836 17.8838Z" fill="#0A0A0A"/>
<path d="M25.65 4.31124C16.0387 -4.98001 0.1325 1.75874 0.12625 14.8662C0.12625 17.4862 0.8125 20.0412 2.12 22.2975L0 30L7.91875 27.935C17.8 33.2725 29.995 26.185 30 14.8737C30 10.9037 28.45 7.16749 25.6312 4.35999L25.65 4.31124ZM27.5025 14.8325C27.495 24.3737 17.0212 30.3325 8.7375 25.4625L8.2875 25.195L3.6 26.4137L4.85625 21.8575L4.5575 21.3887C-0.5975 13.1825 5.325 2.45749 15.09 2.45749C18.4075 2.45749 21.5212 3.75124 23.8662 6.09499C26.21 8.41874 27.5025 11.5325 27.5025 14.8325Z" fill="#0A0A0A"/>
</g>
<defs>
<clipPath id="clip0">
<rect width="30" height="30" fill="white"/>
</clipPath>
</defs>
</svg>
